<svg xmlns="http://www.w3.org/2000/svg" width="1080" height="1080" viewBox="0 0 1080 1080" fill="none">
<path d="M326.6 601.35L321.31 605.41C318.39 601.61 314.89 598.73 310.8 596.77C306.71 594.81 302.22 593.83 297.32 593.83C291.97 593.83 287.01 595.12 282.45 597.68C277.89 600.25 274.35 603.7 271.85 608.03C269.34 612.36 268.09 617.24 268.09 622.65C268.09 630.83 270.89 637.66 276.51 643.13C282.12 648.6 289.2 651.34 297.74 651.34C307.14 651.34 315 647.66 321.32 640.3L326.61 644.31C323.27 648.57 319.09 651.86 314.09 654.18C309.09 656.51 303.5 657.67 297.33 657.67C285.59 657.67 276.33 653.76 269.55 645.95C263.86 639.35 261.02 631.39 261.02 622.05C261.02 612.23 264.46 603.97 271.35 597.26C278.24 590.56 286.86 587.2 297.23 587.2C303.49 587.2 309.15 588.44 314.2 590.92C319.25 593.4 323.38 596.87 326.61 601.34L326.6 601.35Z" fill="white"/>
<path d="M380.41 587.21C390.57 587.21 399.08 590.6 405.92 597.38C412.77 604.16 416.19 612.51 416.19 622.42C416.19 632.33 412.77 640.57 405.94 647.41C399.11 654.25 390.78 657.67 380.95 657.67C371.12 657.67 362.6 654.27 355.76 647.45C348.92 640.63 345.49 632.4 345.49 622.73C345.49 616.28 347.05 610.31 350.17 604.81C353.29 599.31 357.54 595 362.93 591.88C368.31 588.76 374.14 587.21 380.41 587.21ZM380.71 593.73C375.75 593.73 371.04 595.02 366.59 597.61C362.14 600.2 358.67 603.68 356.17 608.06C353.67 612.44 352.42 617.33 352.42 622.71C352.42 630.68 355.18 637.42 360.71 642.91C366.24 648.4 372.9 651.15 380.7 651.15C385.91 651.15 390.73 649.89 395.16 647.36C399.59 644.83 403.05 641.38 405.53 637C408.01 632.62 409.25 627.75 409.25 622.39C409.25 617.03 408.01 612.25 405.53 607.94C403.05 603.63 399.55 600.19 395.05 597.6C390.54 595.01 385.76 593.72 380.71 593.72V593.73Z" fill="white"/>
<path d="M438.06 588.9H444.76V649.52H470.58V656H438.06V588.91V588.9Z" fill="white"/>
<path d="M489.61 588.9H496.31V649.52H522.13V656H489.61V588.91V588.9Z" fill="white"/>
<path d="M568.57 588.9L599.86 655.99H592.62L582.07 633.91H553.17L542.72 655.99H535.24L566.94 588.9H568.58H568.57ZM567.73 603.15L556.23 627.44H579.17L567.73 603.15Z" fill="white"/>
<path d="M618.85 588.9H632.08C637.4 588.9 641.49 589.53 644.35 590.79C647.21 592.05 649.47 593.99 651.12 596.61C652.78 599.23 653.61 602.13 653.61 605.32C653.61 608.3 652.88 611.01 651.43 613.46C649.98 615.91 647.84 617.89 645.03 619.41C648.52 620.6 651.2 621.99 653.08 623.58C654.96 625.18 656.42 627.11 657.47 629.37C658.52 631.64 659.04 634.09 659.04 636.74C659.04 642.12 657.07 646.68 653.13 650.4C649.19 654.12 643.91 655.99 637.28 655.99H618.85V588.9ZM625.42 595.46V616.94H629.26C633.92 616.94 637.35 616.51 639.54 615.64C641.73 614.77 643.47 613.41 644.75 611.54C646.03 609.67 646.67 607.59 646.67 605.31C646.67 602.24 645.6 599.83 643.45 598.08C641.3 596.33 637.88 595.46 633.19 595.46H625.42ZM625.42 623.7V649.42H633.74C638.64 649.42 642.24 648.94 644.52 647.98C646.8 647.02 648.64 645.52 650.03 643.49C651.41 641.45 652.11 639.25 652.11 636.88C652.11 633.9 651.14 631.3 649.19 629.08C647.24 626.86 644.56 625.34 641.15 624.52C638.86 623.97 634.89 623.7 629.22 623.7H625.43H625.42Z" fill="white"/>
<path d="M681.08 588.9H694.44C701.89 588.9 706.94 589.2 709.58 589.81C713.56 590.72 716.8 592.68 719.29 595.68C721.78 598.68 723.03 602.37 723.03 606.76C723.03 610.41 722.17 613.63 720.45 616.4C718.73 619.17 716.28 621.26 713.08 622.68C709.88 624.1 705.48 624.82 699.85 624.85L723.98 656H715.69L691.56 624.85H687.77V656H681.06V588.91L681.08 588.9ZM687.78 595.46V618.27L699.34 618.36C703.82 618.36 707.13 617.93 709.28 617.08C711.43 616.23 713.1 614.87 714.31 613C715.52 611.13 716.11 609.04 716.11 606.73C716.11 604.42 715.5 602.44 714.28 600.6C713.06 598.76 711.46 597.45 709.48 596.65C707.5 595.86 704.21 595.46 699.61 595.46H687.78Z" fill="white"/>
<path d="M744.85 588.9H751.56V655.99H744.85V588.9Z" fill="white"/>
<path d="M771.8 588.9H779.64L795.7 615.01L811.86 588.9H819.6L799.59 621.32L820.92 655.99H813.08L795.66 627.68L778.18 655.99H770.34L791.77 621.36L771.8 588.9Z" fill="white"/>
<path d="M535.1 443.31C528.34 449.62 529.33 447.66 524.39 440.4C520.1 434.09 493.89 399.02 463.74 400.66C397.52 404.26 417.79 527.86 485.12 507.27C536.52 491.55 564.84 392.67 622.27 395.42C696.35 398.96 695.7 509.44 623.82 514.64C593.23 516.85 587.08 500.44 564.55 488.57C532.65 471.76 518.37 499.84 491.71 510.1C459.17 522.63 416.54 509.28 405.24 474.27C390.94 429.99 429.11 392.43 472.81 396.18C502.41 398.72 539.05 439.61 535.09 443.31H535.1Z" fill="white"/>
</svg>