<svg xmlns="http://www.w3.org/2000/svg" width="1244" height="1251" viewBox="0 0 1244 1251" fill="none">
<path d="M578.34 174.152L642.103 174.1C671.568 174.091 705.25 170.768 724.201 198.651C736.6 216.891 734.696 238.579 734.684 259.601V307.362V462.361C734.69 479.089 734.641 495.947 734.751 512.69C734.776 515.645 736.521 520.975 737.384 524.589C738.927 531.201 736.552 537.411 735.492 543.863C733.98 553.072 734.812 563.019 734.61 572.417C734.402 581.813 734.598 591.575 734.702 600.988C734.715 602.311 735.639 603.491 736.46 604.409C735.468 605.504 735.4 605.652 734.653 606.939L735.155 607.53C738.701 607.063 750.481 600.734 754.333 598.909C760.027 596.211 766.591 590.465 772.604 588.309C773.767 587.466 775.053 586.324 776.174 585.387C779.254 587.793 784.072 580.514 785.322 578.536L784.746 578.501L784.648 577.499L786.283 576.162L787.875 576.92C788.542 579.439 791.053 581.656 793.318 582.829L794.965 584.435C800.782 590.826 822.837 600.345 831.642 604.712C831.759 610.017 832.071 616.501 831.734 621.706L832.016 622.379C829.016 625.392 814.045 632.715 811.54 635.911C808.883 636.909 799.056 642.561 798.033 644.477C789.693 648.672 783.093 654.782 775.531 660.018C775.078 649.419 775.396 636.579 775.378 625.814L775.414 611.543L767.877 616.091C763.609 619.109 758.166 623.236 753.598 625.484C744.922 630.511 742.307 632.862 734.592 638.471C734.666 641.177 734.953 647.147 734.61 649.596C734.31 660.82 734.635 673.458 734.653 684.779L734.678 803.285C734.684 844.952 743.771 901.449 690.965 912.924C675.823 916.212 656.505 915.055 640.738 915.049L578.371 915.012L578.331 684.357L578.333 640.363C578.361 634.209 578.841 631.3 577.924 625.135L579.38 623.347L578.879 623.102C575.056 624.216 565.224 629.102 562.753 632.513L562.709 634.368C556.445 637.485 550.371 639.377 544.361 643.173C540.984 645.304 536.52 647.373 532.893 649.174C520.957 654.935 512.94 659.993 501.449 666.33C496.256 679.789 486.707 696.064 479.486 708.794C472.219 721.603 464.302 737.088 456.231 749.132C453.945 752.604 451.633 756.002 449.61 759.64L451.916 759.737C453.202 762.052 452.839 763.65 454.085 765.885C456.987 771.09 454.122 777.764 449.552 780.85L447.865 781.021C445.813 778.976 447.563 776.845 445.345 774.402C441.429 773.416 441.966 776.447 437.697 777.17C433.566 780.721 431.816 787.114 428.782 788.154C429.333 786.397 429.56 786.918 429.053 785.767C426.378 787.75 414.106 802.636 411.698 806.028L411.456 807.761C399.715 821.672 376.169 843.654 361.527 854.565C352.187 861.656 333.066 875.316 322.462 879.902C321.212 880.637 319.401 881.794 318.137 882.37C300.957 893.22 285.839 902.754 265.874 908.056L258.142 910.089C226.574 916.004 184.148 923.841 169.642 887.648C167.873 883.233 164.451 881.923 163.29 875.745C160.302 859.831 168.884 844.052 177.147 831.095C178.396 829.087 183.603 821.85 185.465 821.011L184.408 823.436L185.269 823.638C186.957 821.482 192.056 815.531 192.393 813.32C191.385 813.761 190.531 814.355 189.639 814.992C194.125 802.88 244.465 766.093 257.048 757.209C257.023 722.117 256.714 686.567 257.103 651.513C257.699 686.702 256.943 722.32 257.287 757.564C271.093 748.251 285.333 739.403 299.875 731.247C304.66 728.565 309.669 727.132 314.575 724.536L315.001 724.603C317.745 723.122 320.525 721.707 323.336 720.36L323.788 721.291C334.134 714.458 353.44 706.13 361.26 700.081L361.776 689.806C355.248 689.659 350.466 688.557 344.717 685.287C336.295 680.542 330.156 672.582 327.702 663.232C323.105 645.39 337.908 616.617 347.119 601.796C351.654 594.498 357.277 587.412 361.705 579.972L362.058 579.368C364.585 576.792 369.698 569.943 372.587 566.579L374.312 568.099C377.401 566.437 383.126 559.141 385.58 556.237C387.68 554.005 389.797 551.788 391.929 549.585C401.257 549.034 403.619 549.555 411.6 554.241C411.612 551.829 411.486 549.836 411.325 547.426L411.903 547.636C416.883 553.357 420.626 558.919 420.48 566.994C420.318 576.014 411.911 584.192 411.343 591.958C411.443 603.015 411.456 614.07 411.382 625.128L411.732 632.868C415.587 630.315 419.418 627.718 423.224 625.086C425.943 622.306 430.891 618.448 434.038 615.852C447.07 605.293 459.992 592.926 472.681 581.737C474.345 580.449 477.292 577.473 478.93 575.917C479.81 572.812 479.36 554.355 479.361 549.332C479.772 557.697 479.604 566.803 479.59 575.237C491.931 563.093 503.459 550.392 514.907 537.426C519.873 531.802 528.307 523.67 532.609 518.049L540.037 515.24C547.461 518.05 554.898 519.535 557.766 526.986C560.477 534.028 560.45 536.153 557.778 543.027C551.222 559.898 538.339 580.924 532.5 597.109C532.832 603.169 532.743 609.197 532.719 615.264C536.371 614.193 548.456 608.133 552.223 606.236L578.397 593.163L578.34 174.152Z" fill="#FEFEFE"/>
<path d="M540.037 515.24C547.461 518.05 554.898 519.535 557.766 526.986C560.477 534.028 560.45 536.153 557.778 543.027C551.222 559.898 538.339 580.924 532.5 597.109C532.832 603.169 532.743 609.197 532.719 615.264C530.577 615.638 523.705 620.499 520.15 621.908C517.671 626.335 517.383 627.571 514.031 631.521L512.822 631.423L513.791 631.815L512.628 632.225C512.679 628.863 514.489 623.518 515.501 620.065C512.389 625.63 508.775 632.427 505.211 637.589C506.466 634.056 507.773 630.535 508.854 626.947C506.483 630.119 505.135 632.764 503.256 636.242C501.981 635.384 500.236 634.668 500.395 633.052C500.897 627.927 504.217 625.343 505.457 619.728C504.126 621.693 499.856 628.655 498.441 629.421C498.085 627.822 498.223 628 498.317 626.292C494.581 628.514 490.815 639.475 484.452 639.077L483.659 638.238C484.479 635.911 484.97 634.619 486.037 632.403L484.651 632.464C483.184 635.427 480.827 641.667 477.672 642.677L476.328 641.973C477.1 640.148 477.856 638.311 478.598 636.474L478.053 630.345L477.455 628.784C473.859 629.047 465.042 637.797 461.976 640.779C457.454 645.169 451.793 648.861 446.941 652.927C443.901 655.474 441.355 659.148 438.212 661.658C430.262 665.792 419.804 671.302 411.818 674.921L410.903 672.349C394.284 682.079 381.931 689.457 361.776 689.806C355.248 689.659 350.466 688.557 344.717 685.287C336.295 680.542 330.156 672.582 327.702 663.232C323.105 645.39 337.908 616.617 347.119 601.796C351.654 594.498 357.277 587.412 361.705 579.972L362.058 579.368C364.585 576.792 369.698 569.943 372.587 566.579L374.312 568.099C377.4 566.437 383.126 559.141 385.58 556.237C387.68 554.005 389.797 551.788 391.929 549.585C401.257 549.034 403.619 549.555 411.6 554.241C411.612 551.829 411.486 549.836 411.325 547.426L411.903 547.636C416.882 553.356 420.626 558.919 420.48 566.994C420.318 576.014 411.911 584.192 411.343 591.958C411.443 603.015 411.456 614.07 411.382 625.128L411.732 632.868C415.587 630.315 419.418 627.718 423.224 625.086C425.943 622.306 430.891 618.448 434.038 615.852C447.07 605.293 459.992 592.926 472.681 581.737C474.345 580.449 477.292 577.473 478.93 575.917C479.81 572.812 479.36 554.355 479.361 549.332C479.772 557.697 479.604 566.803 479.59 575.237C491.931 563.093 503.459 550.392 514.907 537.426C519.873 531.802 528.307 523.67 532.609 518.049L540.037 515.24Z" fill="#FD7808"/>
<path d="M370.237 656.307C370.632 654.048 373.483 648.39 374.463 646.094C381.372 629.923 389.993 616.256 399.695 601.719C402.367 597.715 407.196 591.641 408.776 587.707L409.006 587.121L409.986 586.711C411.085 587.999 411.047 590.017 411.343 591.958C411.443 603.015 411.456 614.07 411.382 625.128L411.467 632.917C400.847 640.461 382.318 652.425 370.237 656.307Z" fill="#FEFEFE"/>
<path d="M411.325 547.426L411.903 547.636C416.883 553.356 420.626 558.919 420.48 566.994C420.318 576.014 411.911 584.191 411.343 591.958C411.047 590.017 411.085 587.999 409.986 586.711L409.007 587.121L408.776 587.707C407.196 591.641 402.367 597.715 399.695 601.719C389.993 616.256 381.372 629.923 374.463 646.094C373.483 648.39 370.632 654.048 370.237 656.307C368.701 656.895 368.806 656.938 367.19 656.76C366.72 655.75 366.311 655.027 366.736 653.821C375.288 629.574 389.382 608.178 403.933 587.137C405.797 584.442 409.231 577.668 411.422 575.992C412.007 577.816 411.516 577.4 412.667 578.44L412.868 577.329C413.847 572.054 413.896 572.03 416.575 567.249C415.502 562.035 414.843 558.625 411.6 554.241C411.612 551.829 411.486 549.836 411.325 547.426Z" fill="#E9E9E8"/>
<path d="M410.903 672.349C417.059 669.098 423.452 664.163 429.135 660.103C450.194 645.065 469.783 627.057 489.145 609.828C486.765 615.534 483.805 619.71 480.987 624.369C479.533 626.769 481.748 631.539 478.598 636.474L478.053 630.345L477.455 628.784C473.859 629.047 465.042 637.797 461.976 640.779C457.454 645.169 451.793 648.861 446.941 652.927C443.901 655.474 441.355 659.148 438.211 661.658C430.262 665.792 419.804 671.302 411.817 674.921L410.903 672.349Z" fill="black"/>
<path d="M478.93 575.917C479.118 578.547 479.648 579.02 477.739 581.255C466.29 594.657 451.227 604.942 437.795 616.311C434.647 618.975 430.261 619.538 427.464 622.691C426.294 623.843 424.88 625.196 423.367 625.704L423.224 625.086C425.943 622.306 430.891 618.448 434.038 615.852C447.07 605.293 459.992 592.926 472.681 581.737C474.345 580.449 477.292 577.473 478.93 575.917Z" fill="#FD9A38"/>
<path d="M471.836 585.046L472.157 586.043C470.144 589.222 465.823 592.542 462.792 594.786L462.62 594.652L462.613 593.894L471.836 585.046Z" fill="#FCC88F"/>
<path d="M520.15 621.908C524.332 614.346 528.417 605.072 532.5 597.109C532.832 603.169 532.743 609.197 532.719 615.264C530.577 615.638 523.705 620.499 520.15 621.908Z" fill="#464444"/>
<path d="M484.651 632.464C485.623 629.482 486.103 627.008 488.157 624.7L488.727 624.957C488.512 627.798 487.274 629.8 486.037 632.402L484.651 632.464Z" fill="#FD9A38"/>
<path d="M508.394 551.336C507.723 554.744 484.21 576.663 480.136 579.595L480.093 578.089C483.512 574.245 489.635 569.13 493.587 565.431C497.871 561.422 503.973 554.69 508.394 551.336Z" fill="#FD9A38"/>
<path d="M522.475 603.218C522.364 606.533 516.96 617.732 514.963 620.64C514.719 614.756 519.405 608.171 522.475 603.218Z" fill="#DF6C07"/>
<path d="M361.638 589.105C361.683 589.227 361.762 589.34 361.773 589.469C361.943 591.377 352.182 605.371 350.504 607.836C349.485 604.794 359.41 592.122 361.638 589.105Z" fill="#DF6C07"/>
<path d="M367.328 580.722C367.562 582.514 363.892 587.285 362.738 588.985C362.574 588.527 362.476 587.69 362.391 587.174C363.571 584.3 365.181 582.976 367.328 580.722Z" fill="#FCC88F"/>
<path d="M411.818 674.921C419.804 671.302 430.262 665.792 438.212 661.659C441.355 659.148 443.901 655.474 446.941 652.927C451.793 648.861 457.454 645.169 461.976 640.779C465.042 637.797 473.859 629.047 477.455 628.784L478.053 630.345L478.598 636.474C477.856 638.311 477.1 640.148 476.328 641.973L477.672 642.677C480.827 641.667 483.184 635.427 484.651 632.464L486.037 632.403C484.97 634.619 484.479 635.911 483.659 638.238C478.899 646.547 476.897 654.764 473.516 663.691C474.58 664.555 473.955 664.255 475.598 664.193L476.644 664.622C473.949 666.257 471.965 667.322 468.709 666.967L459.039 671.284L460.848 671.921C461.261 674.125 460.597 674.535 459.613 677.052L462.687 675.711L464.461 676.189C462.069 677.517 459.686 678.944 457.161 679.979C457.709 681.858 457.847 682.226 458.056 684.234C456.289 685.14 456.422 684.895 455.001 686.224C451.659 686.965 448.62 689.825 444.132 691.123L437.987 693.627L437.58 692.304C434.037 694.313 415.335 704.269 412.164 704.967L410.71 707.679C376.001 724.824 342.095 742.642 309.852 764.06C299.345 771.041 287.874 777.262 277.858 784.928C256.281 799.801 216.546 828.169 207.431 852.894L207.593 853.708L209.483 851.675C209.167 855.092 207.193 859.66 206.491 864.129C208.371 868.673 208.901 871.826 213.623 873.461C217.972 874.961 223.212 875.586 227.781 876.308L226.804 876.529C234.968 877.606 250.333 875.684 257.114 872.285C264.593 872.157 290.556 861.907 297.544 858.27C299.255 859.947 298.269 859.378 300.644 859.972C299.316 861.484 297.391 862.121 295.47 863.039L295.466 864.882C298.085 863.499 310.981 859.537 314.174 860.523C316.953 861.38 315.461 860.125 317.36 862.788L318.091 863.229C318.705 867.503 315.618 866.297 317.114 869.138C318.996 869.652 319.656 869.897 321.656 869.977L323.346 871.716C326.233 870.442 329.335 868.985 332.282 867.919C328.199 871.097 320.44 877.496 316.262 879.896C318.123 879.786 320.857 879.296 322.462 879.902C321.212 880.637 319.401 881.794 318.137 882.37C300.957 893.22 285.839 902.754 265.874 908.056L258.142 910.089C226.574 916.004 184.148 923.841 169.642 887.648C167.873 883.233 164.451 881.923 163.29 875.745C160.302 859.831 168.884 844.052 177.147 831.095C178.396 829.087 183.603 821.85 185.465 821.011L184.408 823.436L185.269 823.638C186.957 821.482 192.056 815.531 192.393 813.32C191.385 813.761 190.531 814.355 189.639 814.992C194.125 802.881 244.465 766.093 257.048 757.209C257.023 722.118 256.714 686.567 257.103 651.513C257.699 686.702 256.943 722.32 257.287 757.564C271.093 748.251 285.333 739.403 299.875 731.247C304.66 728.565 309.669 727.132 314.575 724.536L315.001 724.603C317.745 723.122 320.525 721.707 323.336 720.36L323.788 721.291C334.134 714.458 353.44 706.13 361.26 700.081L361.776 689.806C381.931 689.457 394.284 682.079 410.903 672.349L411.818 674.921Z" fill="#FD7808"/>
<path d="M357.834 731.094L356.995 732.031L357.169 732.686C359.734 732.472 406.184 707.63 412.164 704.967L410.71 707.679C376.001 724.824 342.095 742.642 309.852 764.06C299.344 771.041 287.874 777.262 277.857 784.928C277.189 783.226 277.358 783.685 276.198 782.166C279.83 779.319 283.674 776.006 287.941 774.359L290.555 772.669C293.245 769.54 304.784 762.995 308.88 760.423C310.45 758.997 310.139 759.431 312.542 758.929C316.215 755.17 341.995 739.544 347.393 737.86L347.971 735.453C350.403 732.955 354.271 729.875 357.834 731.094Z" fill="#DF6C07"/>
<path d="M347.393 737.86C345.158 740.787 317.403 758.09 312.542 758.929C316.215 755.17 341.995 739.544 347.393 737.86Z" fill="black"/>
<path d="M308.88 760.423C307.385 763.552 293.964 771.91 290.555 772.669C293.245 769.541 304.784 762.995 308.88 760.423Z" fill="#6A411B"/>
<path d="M276.198 782.166C279.83 779.319 283.674 776.006 287.941 774.359C284.767 777.935 280.721 780.623 276.198 782.166Z" fill="#6A411B"/>
<path d="M484.651 632.464L486.037 632.403C484.97 634.619 484.479 635.911 483.659 638.238C478.899 646.547 476.897 654.764 473.516 663.691C474.58 664.555 473.955 664.255 475.598 664.193L476.644 664.622C473.949 666.257 471.965 667.322 468.709 666.967L459.039 671.284L457.173 671.651L457.039 671.094C458.146 669.943 458.672 669.441 459.65 668.149L457.999 668.082L458.868 666.765C461.509 661.726 471.109 657.679 470.383 653.399L468.856 652.609C471.366 651.653 473.554 650.876 474.303 647.986C472.43 647.912 472.539 648.261 470.628 649.327L469.853 647.79C473.818 645.01 473.5 647.514 476.328 641.973L477.672 642.677C480.827 641.667 483.184 635.427 484.651 632.464Z" fill="#FCC88F"/>
<path d="M458.868 666.765C463.119 665.038 469.116 659.399 471.479 658.817C473.53 661.64 470.702 665.002 468.709 666.967L459.039 671.284L457.173 671.651L457.039 671.094C458.146 669.943 458.672 669.441 459.65 668.149L457.999 668.082L458.868 666.765Z" fill="#FEE3CB"/>
<path d="M445.194 657.544C446.547 656.105 451.194 651.978 452.831 651.017C459.56 647.061 471.55 632.568 478.053 630.345L478.598 636.474C477.856 638.311 477.1 640.148 476.328 641.973C473.5 647.514 473.818 645.01 469.853 647.79C462.727 649.804 452.317 654.531 445.194 657.544Z" fill="#FEFEFE"/>
<path d="M361.776 689.806C381.931 689.457 394.284 682.079 410.903 672.349L411.818 674.921C404.194 678.981 369.441 696.737 362.57 697.931C362.14 698.623 361.642 699.37 361.26 700.081L361.776 689.806Z" fill="#464444"/>
<path d="M357.834 731.094C365.86 727.138 432.301 691.961 437.743 691.221L437.58 692.304C434.037 694.313 415.335 704.269 412.164 704.967C406.184 707.63 359.734 732.472 357.169 732.686L356.995 732.031L357.834 731.094Z" fill="#2C190B"/>
<path d="M317.36 862.788L318.091 863.229C318.705 867.503 315.618 866.297 317.114 869.138C318.996 869.652 319.656 869.897 321.656 869.977L323.346 871.716C321.306 872.8 302.525 879.351 299.734 880.19C302.194 878.843 304.618 877.435 307.004 875.959C305.63 875.757 301.478 877.282 299.845 877.784C305.026 874.802 307.113 874.214 310.893 869.536L310.634 869.738C312.192 866.542 314.593 864.987 317.36 862.788Z" fill="#E9E9E8"/>
<path d="M177.147 831.095C178.396 829.087 183.603 821.85 185.465 821.011L184.408 823.435L185.269 823.638C182.241 828.414 180.228 831.744 178.161 837.102L178.855 836.104C176.644 840.464 174.543 844.658 172.49 849.103C171.125 852.061 170.584 857.541 169 859.121C167.559 856.01 173.978 844.793 174.794 840.905C175.17 839.117 177.256 833.202 178.126 831.812L177.147 831.095Z" fill="#6A411B"/>
<path d="M177.147 831.095C178.396 829.087 183.603 821.85 185.465 821.011L184.408 823.435C182.034 825.97 180.107 828.946 178.126 831.812L177.147 831.095Z" fill="#AB5103"/>
<path d="M450.799 683.23C452.397 682.116 455.321 680.848 457.161 679.979C457.709 681.858 457.847 682.226 458.056 684.234C456.289 685.14 456.422 684.895 455.001 686.224C451.659 686.965 448.62 689.824 444.132 691.123C443.431 689.604 443.624 690.186 443.493 688.465C444.7 686.218 448.525 685.134 450.799 683.23Z" fill="#DF6C07"/>
<path d="M316.262 879.896C318.123 879.786 320.857 879.296 322.462 879.902C321.212 880.637 319.401 881.794 318.137 882.37C314.099 882.002 310.411 884.243 306.551 885.933C308.869 884.305 313.78 880.729 316.262 879.896Z" fill="#FCC88F"/>
<path d="M470.628 649.327C472.539 648.261 472.43 647.912 474.303 647.986C473.554 650.876 471.366 651.653 468.856 652.609L465.39 653.772L464.024 652.872L470.628 649.327Z" fill="#FEE3CB"/>
<path d="M295.47 863.039L295.466 864.882C292.15 866.48 286.053 869.885 282.587 869.658C284.884 867.821 292.381 864.552 295.47 863.039Z" fill="#FCC88F"/>
<path d="M459.613 677.052L462.687 675.711L464.461 676.188C462.069 677.517 459.686 678.944 457.161 679.979C455.321 680.848 452.397 682.116 450.799 683.23C453.718 679.734 455.703 679.225 459.613 677.052Z" fill="#FEE3CB"/>
<path d="M457.326 657.452C454.556 659.026 453.677 659.522 450.673 660.495L449.657 659.962L448.882 660.526C450.705 658.646 454.184 657.513 456.775 656.295L457.326 657.452Z" fill="#FD9A38"/>
<path d="M315 724.603C317.745 723.122 320.525 721.707 323.336 720.36L323.788 721.291C320.83 723.189 319.508 724.016 316.251 725.497C315.207 725.081 315.605 725.406 315 724.603Z" fill="#2C190B"/>
<path d="M456.775 656.295C459.472 654.85 461.194 654.029 464.024 652.872L465.39 653.772C463.482 654.629 458.944 656.515 457.326 657.452L456.775 656.295Z" fill="#FCC88F"/>
<path d="M257.345 794.596L258.151 795.704C252.083 801.846 242.582 808.428 235.976 814.459C229.158 820.692 222.216 828.542 215.26 834.316C222.149 822.064 245.719 803.009 257.345 794.596Z" fill="black"/>
<path d="M226.737 787.94C230.403 784.536 252.815 765.169 256.094 765.26C254.76 766.644 254.103 767.324 252.598 768.585C253.776 769.363 253.299 769.118 254.752 769.381C248.621 775.468 234.779 782.828 227.538 788.804L226.737 787.94Z" fill="#AB5103"/>
<path d="M295.84 737.633L295.515 739.403C282.717 746.365 266.923 759.113 255.221 765.083C262.118 757.68 286.415 742.917 295.84 737.633Z" fill="#FEE3CB"/>
<path d="M226.737 787.94L227.538 788.804C225.09 790.885 203.507 810.051 202.63 810.381C205.266 805.617 221.779 791.957 226.737 787.94Z" fill="#2C190B"/>
<path d="M257.345 794.596C260.398 792.618 266.013 788.442 268.887 787.23C265.877 790.371 261.756 793.243 258.151 795.704L257.345 794.596Z" fill="#6A411B"/>
<path d="M307.379 731.106C304.823 734.094 299.048 737.315 295.515 739.403L295.84 737.633C298.491 735.435 304.016 732.955 307.379 731.106Z" fill="#FCC88F"/>
<path d="M209.48 840.329C209.609 842.491 205.133 847.291 203.598 848.92L203.437 848.197C204.674 845.283 207.038 842.337 209.48 840.329Z" fill="#DF6C07"/>
<path d="M444.132 691.123C448.62 689.824 451.659 686.965 455.001 686.224C452.28 691.135 451.83 692.537 447.636 696.199C447.756 699.658 447.694 699.462 446.075 702.26C434.93 721.554 423.494 740.56 411.64 759.419C411.371 746.303 412.17 726.214 411.002 714.066C398.417 718.119 385.574 728.345 373.889 734.333C369.972 736.335 366.192 738.435 362.442 740.725C360.761 762.217 362.062 794.639 362.001 817.184C357.609 820.864 353.074 824.562 348.858 828.432L350.137 829.461C352.322 827.765 359.669 821.421 361.578 820.925L361.962 821.005C362.391 825.628 337.367 843.782 332.728 844.958L331.718 844.689C328.626 844.646 326.88 847.94 321.596 849.134C320.765 848.185 321.152 848.399 321.118 846.501C318.946 847.517 316.684 848.522 314.594 849.679L314.652 798.104C314.656 789.869 315.021 775.682 314.178 767.85C305.302 771.83 299.165 778.474 291.432 783.715C284.838 788.185 279.292 792.141 272.91 796.923C268.192 800.456 263.62 801.141 257.749 805.924C256.745 813.045 257.031 823.833 257.04 831.291L257.114 872.285C250.333 875.683 234.968 877.606 226.804 876.528L227.781 876.308C223.212 875.586 217.972 874.961 213.623 873.461C208.901 871.826 208.371 868.673 206.491 864.129C207.193 859.659 209.167 855.092 209.483 851.675L207.593 853.708L207.431 852.894C216.546 828.169 256.281 799.801 277.858 784.928C287.874 777.262 299.345 771.041 309.852 764.06C342.095 742.642 376.001 724.824 410.71 707.679L412.164 704.967C415.335 704.269 434.037 694.313 437.58 692.304L437.987 693.627L444.132 691.123Z" fill="black"/>
<path d="M321.118 846.501C327.157 843.28 332.622 839.092 339.07 835.755C336.25 838.345 333.842 840.372 330.856 842.778L332.575 843.201L332.735 843.911L331.718 844.689C328.625 844.646 326.88 847.94 321.596 849.134C320.765 848.185 321.152 848.399 321.118 846.501Z" fill="#E9E9E8"/>
<path d="M330.856 842.778L332.576 843.201L332.735 843.911L331.718 844.689C328.626 844.646 326.881 847.94 321.596 849.134C324.017 846.624 327.827 844.566 330.856 842.778Z" fill="#0F110B"/>
<path d="M412.164 704.967C415.335 704.269 434.037 694.313 437.58 692.304L437.987 693.627C430.008 698.066 418.986 703.712 410.71 707.679L412.164 704.967Z" fill="#AB5103"/>
<path d="M348.858 828.432L350.137 829.461C346.327 832.357 341.549 835.198 337.448 837.776C340.49 834.696 345.327 831.169 348.858 828.432Z" fill="#E9E9E8"/>
<path d="M678.94 668.375C678.842 672.937 678.499 679.605 678.719 684.008C679.16 721.915 678.823 760.368 678.83 798.313L678.848 832.4C678.848 847.352 681.811 866.952 661.293 867.466C652.421 867.693 643.432 867.448 634.56 867.307C635.142 860.253 634.78 847.805 634.78 840.445V791.118L634.768 724.885C634.762 710.514 635.038 695.317 634.364 681.02C651.882 679.115 662.885 674.872 678.94 668.375Z" fill="black"/>
<path d="M734.592 638.47C734.666 641.177 734.953 647.147 734.61 649.596C723.552 658.205 711.288 664.15 699.476 671.504C695.178 674.18 679.858 679.611 678.719 684.008C678.499 679.605 678.842 672.937 678.94 668.375C693.372 662.02 708.159 654.69 722.113 647.306C726.448 645.016 729.277 640.705 734.592 638.47Z" fill="#7F7E7E"/>
<path d="M794.965 584.435C800.782 590.826 822.837 600.345 831.642 604.712C831.759 610.017 832.071 616.501 831.734 621.706C831.361 618.981 831.189 616.464 830.987 613.733C821.821 605.665 811.498 601.059 802.754 592.592C798.094 595.456 793.22 597.794 788.646 600.629C785.358 602.665 786.687 602.009 782.676 603.05L782.799 604.371C781.286 605.625 781.354 605.793 779.474 606.149L781.152 604.275L780.907 602.977C783.95 600.002 790.33 598.597 791.451 594.642C790.575 592.634 790.447 593.116 787.954 591.791C789.981 589.457 792.767 586.713 794.965 584.435Z" fill="#C0C3BE"/>
<path d="M775.414 611.543L776.094 611.121C779.015 609.267 790.275 600.135 791.959 600.414C790.967 603.133 790.802 600.13 790.489 601.895C790.042 604.445 791.328 607.713 791.249 610.126C791.206 611.528 789.118 614.04 789.528 615.521C792.559 613.88 793.496 612.099 795.927 610.461C796.741 609.911 801.229 608.195 802.901 607.374L801.633 608.979L802.239 607.573C801.241 610.598 793.863 614.517 790.9 616.477C785.089 620.322 782.309 624.461 775.378 625.814L775.414 611.543Z" fill="#C4C3C3"/>
<path d="M505.457 619.728C504.217 625.343 500.897 627.927 500.395 633.052C500.236 634.668 501.981 635.384 503.256 636.242C500.212 641.544 496.606 648.231 493.264 653.227C494.83 645.5 496.422 640.711 498.279 633.419C496.432 636.125 495.036 638.195 492.893 640.718C492.764 639.119 492.756 638.409 492.404 636.823C488.173 640.938 477.148 659.007 475.598 664.193C473.955 664.255 474.58 664.555 473.516 663.691C476.897 654.764 478.899 646.547 483.659 638.238L484.452 639.077C490.815 639.475 494.581 628.514 498.317 626.292C498.223 628 498.084 627.822 498.441 629.421C499.856 628.655 504.126 621.693 505.457 619.728Z" fill="#FD9A38"/>
<path d="M608.806 677.468C621.022 680.658 621.279 681.283 634.364 681.02C635.038 695.317 634.762 710.514 634.768 724.885L634.78 791.118V840.445C634.78 847.805 635.142 860.253 634.56 867.307C633.537 857.994 634.229 834.083 634.242 823.987V736.758C634.242 723.391 634.884 702.126 633.85 689.255C622.155 687.73 616.656 686.72 608.806 677.468Z" fill="#7F7E7E"/>
<path d="M449.61 759.639L451.916 759.737C453.202 762.052 452.839 763.65 454.085 765.885C456.987 771.089 454.122 777.764 449.552 780.85L447.865 781.021C445.813 778.976 447.563 776.845 445.345 774.402C441.429 773.416 441.966 776.447 437.697 777.17C441.915 771.077 445.834 766.087 449.61 759.639Z" fill="#0F110B"/>
<path d="M332.403 850.72C327.688 856.506 321.196 858.967 318.091 863.229L317.36 862.788C315.461 860.125 316.953 861.38 314.174 860.523C310.981 859.537 298.085 863.499 295.466 864.882L295.47 863.039C297.391 862.121 299.316 861.484 300.644 859.972C298.269 859.378 299.255 859.947 297.544 858.269C301.014 856.175 301.509 855.563 305.414 855.826L303.839 856.316C306.137 856.01 309.565 855.269 311.608 855.783L310.74 858.031C312.826 858.741 329.084 851.901 332.403 850.72Z" fill="#FEE3CB"/>
<path d="M786.283 576.162L787.875 576.92C788.542 579.439 791.053 581.656 793.318 582.829C789.344 583.813 777.3 590.349 774.435 592.887L773.718 592.742C773.192 590.942 773.608 591.097 772.549 590.246L772.524 589.129L773.045 588.674L772.604 588.309C773.767 587.466 775.053 586.324 776.174 585.387C779.254 587.793 784.072 580.514 785.322 578.536L784.746 578.501L784.648 577.499L786.283 576.162Z" fill="#E9E9E8"/>
<path d="M787.955 591.791C790.447 593.116 790.575 592.634 791.451 594.642C790.33 598.597 783.95 600.002 780.907 602.977C778.966 603.969 778.225 604.452 776.045 604.939C777.141 603.721 777.625 603.199 778.58 601.828C777.509 601.679 775.525 603.268 773.571 603.958C778.525 599.388 782.664 596.003 787.955 591.791Z" fill="#9CCF99"/>
<path d="M766.23 614.493L767.877 616.091C763.609 619.109 758.166 623.236 753.598 625.484L752.833 624.406C751.112 624.994 750.408 625.392 748.583 625.177L748.718 624.241C752.863 620.408 760.786 616.195 766.23 614.493Z" fill="#0F110B"/>
<path d="M766.23 614.493L767.877 616.091C763.609 619.109 758.166 623.236 753.598 625.484L752.833 624.406C755.521 623.132 765.477 616.911 766.23 614.493Z" fill="#C0C3BE"/>
<path d="M476.644 664.622L477.718 664.371C477.136 666.012 464.837 674.48 462.687 675.711L459.613 677.052C460.597 674.535 461.261 674.125 460.848 671.921L459.039 671.284L468.709 666.967C471.965 667.322 473.949 666.257 476.644 664.622Z" fill="#FD9A38"/>
<path d="M464.461 676.188C465.724 676.617 466.99 677.04 468.259 677.45C467.167 680.156 460.834 683.169 458.056 684.234C457.847 682.226 457.709 681.858 457.161 679.979C459.686 678.944 462.069 677.517 464.461 676.188Z" fill="#FD7808"/>
<path d="M634.542 225.041L645.894 224.945C659.401 224.848 677.28 222.196 678.468 240.957C679.117 251.199 678.848 261.439 678.848 271.701L678.842 327.552L678.781 506.573C671.666 509.947 665.714 513.522 659.138 517.697C649.745 523.995 643.108 529.393 634.566 536.77L634.542 225.041Z" fill="black"/>
<path d="M678.658 599.184L678.726 613.991L678.817 630.468C662.616 637.399 652.188 641.042 634.572 643.234L634.597 636.676C635.031 631.558 634.768 623.426 634.701 618.069C634.866 614.94 634.327 614.499 635.895 612.588C651.839 611.437 664.551 606.005 678.658 599.184Z" fill="black"/>
<path d="M705.122 533.041C705.655 533.499 705.355 533.146 705.508 534.37C694.192 554.125 666.767 570.118 645.618 576.865L645.385 576.597C646.016 574.451 650.621 570.483 652.384 568.709C667.012 554.015 684.91 538.964 705.122 533.041Z" fill="black"/>
<path d="M686.134 594.995C692.159 591.409 697.964 587.465 703.518 583.187C705.587 581.562 719.713 569.252 720.044 569.168C719.572 571.493 715.268 573.649 715.017 574.808C714.582 576.854 711.367 584.587 711.294 585.904C714.502 584.819 714.129 580.979 717.417 581.55L717.57 584C718.911 584.651 718.342 584.204 719.285 585.334C718.342 588.107 715.598 591.017 712.88 592.126C706.028 597.692 698.607 602.517 690.745 606.52C687.671 608.097 682.571 610.687 679.319 612.435C679.124 612.95 678.921 613.47 678.726 613.991L678.658 599.184C680.354 597.938 684.132 596.069 686.134 594.995Z" fill="#C1C0C0"/>
<path d="M686.134 594.995C689.018 595.532 688.473 594.467 690.708 595.999C690.525 597.919 690.151 597.739 688.669 599.533C692.08 601.206 706.506 592.377 712.88 592.126C706.028 597.692 698.607 602.517 690.745 606.52C687.671 608.097 682.571 610.687 679.319 612.435C679.124 612.95 678.921 613.47 678.726 613.991L678.658 599.184C680.354 597.938 684.132 596.069 686.134 594.995Z" fill="#7F7E7E"/>
<path d="M622.608 610.937C628.076 612.037 630.347 612.35 635.895 612.588C634.327 614.499 634.866 614.94 634.701 618.069C634.768 623.426 635.031 631.558 634.597 636.676C634.217 633.799 634.205 627.608 634.113 624.467C622.742 625.594 622.418 632.084 620.85 641.948C615.554 634.307 615.56 631.625 617.82 622.851C618.811 619.14 621.016 614.542 622.608 610.937Z" fill="#7F7E7E"/>
<path d="M622.608 610.937C628.076 612.037 630.347 612.35 635.895 612.588C634.327 614.499 634.866 614.94 634.701 618.069C628.339 617.358 624.206 619.171 619.332 623.01C618.934 622.979 618.156 622.967 617.82 622.851C618.812 619.14 621.016 614.542 622.608 610.937Z" fill="#0F110B"/>
<path d="M428.072 743.591C427.99 747.706 414.792 764.997 411.754 769.081C410.897 765.003 424.857 747.663 428.072 743.591Z" fill="black"/>
<path d="M459.094 685.085L459.905 685.9C460.248 689.126 453.817 698.985 451.67 701.862L451.381 701.391C452.955 696.952 456.823 689.09 459.094 685.085Z" fill="#FD9A38"/>
<path d="M440.278 767.385C440.516 770.183 436.716 774.751 434.911 776.809C433.92 773.667 438.25 769.626 440.278 767.385Z" fill="black"/>
<path d="M908.242 174.128L984.1 174.168C985.784 213.41 989.403 253.927 992.14 293.178L1001.62 445.383C1003.73 480.418 1006.38 516.937 1007.77 551.916C1009.54 552.951 1026.63 548.626 1030.65 548.281C1033.86 547.327 1045.07 545.923 1048.46 545.779C1048.2 546.102 1040.63 548.271 1038.98 548.935L1038.35 549.194C1043.18 548.484 1048.2 547.95 1053.06 547.368C1053.41 547.123 1078.85 544.356 1081.33 544.135C1094.9 543.163 1109.27 541.107 1122.7 543.888C1120.1 544.007 1110.72 544.039 1109.18 545.171L1109.52 545.615C1122.91 547.647 1135.33 545.477 1147.71 551.93C1151.27 553.782 1154.24 555.711 1153.62 559.955C1153.27 562.274 1151.72 565.508 1149.92 566.944C1147.74 567.377 1147.73 567.277 1145.64 566.89C1142.74 564.011 1147.18 563.306 1140.61 562.403C1135.85 561.749 1131.13 562.058 1126.42 561.692L1127.46 559.405L1122.63 560.27L1121.91 558.613C1114.02 558.068 1104.61 559.148 1096.69 559.956C1072.48 562.286 1048.49 566.484 1024.93 572.509C1022.06 573.216 1012.39 575.421 1010.14 576.864L1010.04 577.836L1010.81 577.7C1034.02 573.435 1069.67 561.506 1093.58 564.568C1081.7 567.778 1018.18 577.528 1010.33 583.194C1010.18 584.243 1010.05 585.293 1009.92 586.344C1002.79 588.24 968.903 600.367 960.814 605.092C960.079 605.522 960.251 610.087 960.263 611.627C959.577 607.456 959.81 603.336 959.883 599.106C950.307 602.515 940.865 606.287 931.577 610.412C931.644 614.523 931.895 619.269 931.27 623.261C931.221 621.216 931.485 619.189 930.395 617.591C924.633 617.371 890.405 634.98 883.186 638.66C882.684 644.263 882.072 647.288 880.841 652.823C875.465 661.885 870.383 671.308 863.99 679.728C854.653 692.041 843.007 701.93 831.887 712.425C816.151 724.089 795.418 738.16 775.574 740.627C762.783 741.54 751.743 739.703 743.483 729.128C726.216 707.024 756.488 674.468 771.961 661.763C773.455 660.722 773.853 660.654 775.531 660.018C783.093 654.782 789.693 648.672 798.033 644.477C799.056 642.561 808.883 636.909 811.54 635.911C814.045 632.715 829.016 625.392 832.016 622.379L831.734 621.706C832.071 616.501 831.759 610.017 831.642 604.712C822.837 600.345 800.782 590.826 794.965 584.435L793.318 582.829C791.053 581.656 788.542 579.439 787.875 576.92L786.283 576.162C777.104 564.371 773.792 553.42 780.631 539.304C782.67 530.095 801.952 509.568 809.63 502.758C816.108 496.763 824.766 490.319 831.851 485.046C844.378 477.014 860.966 467.134 876.837 465.417C880.265 465.045 888.611 468.765 891.122 468.328L891.654 466.208L902.804 266.306L906.552 202.96C907.097 194.005 907.391 182.772 908.242 174.128Z" fill="#FEFEFE"/>
<path d="M831.851 485.046C844.378 477.014 860.966 467.134 876.837 465.417C880.265 465.045 888.611 468.765 891.122 468.328L891.654 466.208C891.765 472.664 895.383 473.206 899.669 477.035C910.556 483.528 903.349 503.189 893.308 506.552C890.84 507.378 889.854 507.716 889.052 510.21L883.774 594.465C899.48 588.909 917.138 580.582 933.389 574.464C940.951 571.32 949.101 569.756 956.718 566.184C957.783 564.273 957.465 563.338 957.526 560.936C957.673 563.051 957.777 563.61 958.236 565.692C965.866 565.761 987.933 556.432 996.873 555.692C999.108 555.507 1006.54 553.522 1007.77 551.916C1009.54 552.951 1026.63 548.626 1030.65 548.281C1033.86 547.327 1045.07 545.922 1048.46 545.779C1048.2 546.102 1040.63 548.271 1038.98 548.935L1038.35 549.194C1043.18 548.484 1048.2 547.95 1053.06 547.368C1053.41 547.123 1078.85 544.356 1081.33 544.135C1094.9 543.163 1109.27 541.107 1122.7 543.888C1120.1 544.007 1110.72 544.039 1109.18 545.171L1109.52 545.614C1122.91 547.647 1135.33 545.477 1147.71 551.93C1151.27 553.782 1154.24 555.711 1153.62 559.955C1153.27 562.274 1151.72 565.508 1149.92 566.944C1147.74 567.377 1147.73 567.277 1145.64 566.89C1142.74 564.011 1147.18 563.306 1140.61 562.403C1135.85 561.749 1131.13 562.058 1126.42 561.692L1127.46 559.405L1122.63 560.27L1121.91 558.613C1114.02 558.068 1104.61 559.148 1096.69 559.956C1072.48 562.286 1048.49 566.484 1024.93 572.509C1022.06 573.216 1012.39 575.421 1010.14 576.864L1010.04 577.836L1010.81 577.7C1034.02 573.435 1069.67 561.506 1093.58 564.568C1081.7 567.778 1018.18 577.528 1010.33 583.194C1010.18 584.243 1010.05 585.293 1009.92 586.344C1002.79 588.239 968.903 600.367 960.814 605.092C960.079 605.522 960.251 610.087 960.263 611.627C959.577 607.456 959.81 603.336 959.883 599.106C950.307 602.515 940.865 606.287 931.577 610.412C931.644 614.523 931.895 619.269 931.27 623.261C931.221 621.216 931.485 619.189 930.395 617.591C924.633 617.37 890.405 634.98 883.186 638.66C882.684 644.263 882.072 647.288 880.841 652.823C875.465 661.885 870.383 671.308 863.99 679.728C854.653 692.041 843.007 701.93 831.887 712.425C816.151 724.089 795.418 738.16 775.574 740.627C762.783 741.54 751.743 739.703 743.483 729.128C726.216 707.024 756.488 674.468 771.961 661.763C773.455 660.722 773.853 660.654 775.531 660.018C783.093 654.782 789.693 648.672 798.033 644.477C799.056 642.561 808.883 636.909 811.54 635.911C814.045 632.715 829.016 625.392 832.016 622.379L831.734 621.706C832.071 616.501 831.759 610.017 831.642 604.712C822.837 600.345 800.782 590.826 794.965 584.435L793.318 582.829C791.053 581.656 788.542 579.439 787.875 576.92L786.283 576.162C777.104 564.371 773.792 553.42 780.631 539.303C782.67 530.095 801.952 509.568 809.63 502.758C816.108 496.763 824.766 490.318 831.851 485.046Z" fill="#19A71B"/>
<path d="M875.355 518.266C878.6 516.354 886.217 511.055 889.052 510.21L883.774 594.465C879.543 595.865 872.079 599.914 867.897 602.076C865.05 598.552 861.811 595.068 858.174 592.366C855.247 590.531 852.577 589.099 850.361 586.418C847.862 584.086 835.414 576.023 832.126 574.642L831.722 572.299C831.93 559.837 831.961 547.371 831.826 534.907C841.317 528.506 849.228 517.418 862.594 514.58C858.865 518.559 856.11 521.715 852.706 525.971C859.845 521.839 867.426 516.877 875.355 518.266Z" fill="black"/>
<path d="M831.722 572.299C838.408 574.008 858.437 584.779 860.329 591.931C859.233 591.935 859.723 592.08 858.841 591.545L858.174 592.366C855.247 590.531 852.577 589.098 850.361 586.418C847.862 584.086 835.414 576.023 832.126 574.642L831.722 572.299Z" fill="#37B21A"/>
<path d="M850.361 586.418C852.987 587.719 856.973 589.427 858.841 591.545L858.174 592.366C855.247 590.531 852.577 589.099 850.361 586.418Z" fill="#0A5F07"/>
<path d="M831.851 485.046C844.378 477.014 860.966 467.134 876.837 465.417C880.266 465.045 888.611 468.765 891.122 468.328L891.654 466.208C891.765 472.664 895.383 473.206 899.669 477.035C895.885 475.975 892.806 474.136 889.015 472.942L888.526 473.404L888.844 475.68L888.348 475.976C887.227 473.369 887.705 473.399 885.752 471.91C883.217 474.059 884.601 475.908 880.951 474.548C878.98 473.813 875.232 475.264 873.114 475.637C856.263 478.881 841.752 488.069 826.395 495.434C822.801 497.157 814.675 503.4 809.955 506.164L809.391 505.951C810.548 504.92 810.285 505.348 810.763 503.955L809.63 502.758C816.108 496.763 824.766 490.318 831.851 485.046Z" fill="#37B21A"/>
<path d="M871.185 470.439L871.975 470.435L872.367 471.049C868.852 473.098 863.139 473.853 858.32 476.201L857.812 476.404L857.696 475.956C862.625 473.704 866.085 472.142 871.185 470.439Z" fill="#317929"/>
<path d="M825.446 540.104C827.54 538.803 829.303 536.558 831.826 534.907C831.961 547.371 831.93 559.837 831.722 572.299L832.126 574.642C826.291 573.533 815.943 567.038 813.347 561.52C811.381 557.325 811.865 554.807 813.096 550.533C819.568 548.847 821.454 545.236 825.446 540.104Z" fill="#FEFEFE"/>
<path d="M1081.33 544.135C1094.9 543.163 1109.27 541.107 1122.7 543.888C1120.1 544.007 1110.72 544.039 1109.18 545.171L1109.52 545.614C1107.71 545.937 1105.59 545.801 1103.7 545.781C1082.01 548.406 1060.5 548.579 1038.89 552.931C1035.74 553.567 1011.17 558.419 1009.47 558.142C1011.73 556.412 1014.39 556.136 1017.21 555.578C1018.25 552.11 1033.08 552.609 1037.18 549.201L1037.21 548.754L1036.01 548.156C1033.44 548.911 1033.26 548.909 1030.65 548.281C1033.86 547.326 1045.07 545.922 1048.46 545.779C1048.2 546.102 1040.63 548.271 1038.98 548.935L1038.35 549.194C1043.18 548.484 1048.2 547.95 1053.06 547.368C1053.41 547.123 1078.85 544.356 1081.33 544.135Z" fill="#0F110B"/>
<path d="M1030.65 548.281C1033.86 547.326 1045.07 545.922 1048.46 545.779C1048.2 546.102 1040.63 548.271 1038.98 548.935L1038.35 549.194C1043.18 548.484 1048.2 547.95 1053.06 547.368C1054.82 547.362 1056.2 547.096 1057.62 547.805C1043.95 550.588 1031.17 552.535 1017.21 555.579C1018.25 552.11 1033.08 552.609 1037.18 549.201L1037.21 548.754L1036.01 548.156C1033.44 548.911 1033.26 548.909 1030.65 548.281Z" fill="#37B21A"/>
<path d="M1081.33 544.135C1094.9 543.163 1109.27 541.107 1122.7 543.888C1120.1 544.007 1110.72 544.039 1109.18 545.171L1109.52 545.614C1107.71 545.937 1105.59 545.801 1103.7 545.781C1106.07 545.549 1106.21 545.528 1108.47 544.793C1105.4 543.331 1087.79 545.308 1081.63 544.885L1081.33 544.135Z" fill="#0A5F07"/>
<path d="M831.642 604.712C837.318 607.135 842.437 610.292 846.723 614.805C842.131 617.64 837.129 621.369 832.016 622.379L831.734 621.706C832.071 616.501 831.759 610.017 831.642 604.712Z" fill="black"/>
<path d="M798.033 644.477C799.055 642.561 808.883 636.909 811.54 635.911L812.379 636.799C810.818 638.519 802.76 643.571 800.133 645.396C794.984 648.947 789.944 652.664 785.028 656.527C783.08 658.04 776.817 663.373 774.974 663.783L774.367 661.867L771.961 661.763C773.455 660.722 773.853 660.654 775.531 660.018C783.093 654.782 789.693 648.672 798.033 644.477Z" fill="#C0EFBD"/>
<path d="M775.531 660.018C783.093 654.782 789.693 648.672 798.033 644.477C792.62 650.692 778.617 657.489 774.974 663.783L774.367 661.867L771.961 661.763C773.455 660.722 773.853 660.654 775.531 660.018Z" fill="#37B21A"/>
<path d="M809.63 502.758L810.763 503.954C810.285 505.348 810.548 504.92 809.391 505.951C807.787 507.183 806.599 507.964 805.215 509.444C801.143 513.565 785.769 528.382 786.393 533.378C786.687 532.53 778.831 550.205 779.823 548.799L779.119 548.564C779.615 544.899 781.139 542.088 780.631 539.303C782.67 530.095 801.952 509.568 809.63 502.758Z" fill="#37B21A"/>
<path d="M813.096 550.533C818.074 540.883 824.178 534.251 833.002 527.828C830.595 532.252 827.02 535.807 825.446 540.104C821.454 545.236 819.568 548.847 813.096 550.533Z" fill="#E9E9E8"/>
<path d="M1010.04 577.836C1004.91 581.956 995.403 582.746 988.913 584.165C981.712 585.739 973.066 589.324 966.019 590.274C978.798 584.855 996.579 579.218 1010.14 576.864L1010.04 577.836Z" fill="#317929"/>
<path d="M786.393 533.378C785.769 528.382 801.144 513.565 805.215 509.444L805.57 511.026C797.819 518.715 792.706 524.521 786.393 533.378Z" fill="#C0EFBD"/>
<path d="M1121.91 558.613C1124.94 558.523 1125.52 558.391 1128.37 559.153C1127.67 559.496 1127.99 559.483 1127.46 559.405L1122.63 560.27L1121.91 558.613Z" fill="#0F110B"/>
<path d="M809.391 505.951L809.955 506.164C808.712 507.607 806.918 509.83 805.57 511.026L805.215 509.444C806.599 507.964 807.787 507.183 809.391 505.951Z" fill="#9CCF99"/>
<path d="M778.005 708.702C781.391 699.058 796.68 683.965 805.056 677.872C811.626 673.102 824.515 661.003 831.747 660.213L831.894 673.36C818.398 687.192 796.557 702.707 778.005 708.702Z" fill="#FEFEFE"/>
<path d="M831.557 653.288C838.929 648.58 846.191 643.779 853.955 639.738C850.079 652.737 841.396 663.844 831.893 673.36L831.746 660.213L831.557 653.288Z" fill="black"/>
<path d="M1007.07 557.558L1007.8 557.703L1008.1 558.593C1005.79 560.406 979.52 566.588 974.236 568.215L973.679 568.141L974.003 567.266C979.367 564.472 1000.68 558.803 1007.07 557.558Z" fill="#E9E9E8"/>
<path d="M929.611 578.225L930.652 578.41L930.364 579.132C925.919 581.793 906.405 590.063 901.849 591.716L900.814 591.765C901.696 589.805 925.674 579.812 929.611 578.225Z" fill="#C0EFBD"/>
<path d="M775.323 701.752C775.794 703.834 775.708 708.114 774.643 710.073C773.914 711.408 774.037 710.857 771.845 711.512C770.687 707.961 773.418 704.593 775.323 701.752Z" fill="black"/>
<path d="M774.398 663.912L774.814 664.377C774.318 665.681 762.28 676.611 759.917 679.311L759.464 678.772C762.219 674.56 770.357 667.555 774.398 663.912Z" fill="#0A5F07"/>
<path d="M957.771 592.916L958.304 592.875L958.867 593.45C957.299 594.98 948.054 598.251 945.476 599.264L944.631 599.061L944.778 598.342C948.182 596.221 953.834 594.371 957.771 592.916Z" fill="#022A07"/>
<path d="M1121.76 554.086C1125.79 553.478 1130.56 552.984 1134.29 554.643C1130.86 554.944 1124.73 555.688 1121.76 554.086Z" fill="#37B21A"/>
<path d="M945.084 317.996L946.37 320.706C946.358 337.22 947.87 356.557 948.611 373.313C950.166 410.429 951.936 447.536 953.907 484.631C955.205 509.039 957.22 536.64 957.526 560.936C957.465 563.338 957.783 564.273 956.718 566.184C949.101 569.756 940.951 571.32 933.389 574.464L940.498 421.098C942.029 387.021 943.168 351.969 945.084 317.996Z" fill="black"/>
<path d="M945.084 317.996C945.127 316.229 945.004 314.744 945.684 313.133C946.59 316.155 946.401 317.582 946.37 320.706L945.084 317.996Z" fill="#464444"/>
<path d="M960.263 611.627C960.251 610.087 960.079 605.522 960.814 605.092C968.903 600.367 1002.79 588.24 1009.92 586.344C1011.53 602.8 1012.18 621.589 1013.19 638.275L1019 735.845L1026.26 859.892C1027.33 877.967 1028.89 897.028 1029.64 915L975.699 915.012L970.636 819.884C969.925 806.205 968.486 789.716 968.327 776.325C953.834 776.147 938.281 775.988 923.788 776.3C922.025 822.444 917.922 869.028 916.116 914.981L864.327 915.018C869.036 853.683 871.479 791.455 875.796 730.059C877.547 705.126 878.349 677.511 880.841 652.823C882.072 647.288 882.684 644.263 883.186 638.66C890.405 634.98 924.633 617.371 930.395 617.591C931.485 619.189 931.222 621.216 931.271 623.261C931.895 619.269 931.644 614.523 931.577 610.412C940.865 606.287 950.307 602.515 959.883 599.106C959.81 603.337 959.577 607.456 960.263 611.627Z" fill="#FEFEFE"/>
<path d="M931.577 610.412C940.865 606.287 950.307 602.515 959.883 599.106C959.81 603.336 959.577 607.456 960.263 611.627C961.427 649.461 965.529 690.847 965.958 727.94L926.035 728.026C926.954 705.842 928.007 683.665 929.195 661.493C929.685 651.617 930.101 632.746 931.271 623.261C931.895 619.269 931.644 614.523 931.577 610.412Z" fill="black"/>
<path d="M361.975 174.144L428.546 174.164C439.841 264.769 449.864 355.529 458.613 446.416C461.517 477.87 464.678 509.301 468.096 540.703C469.242 551.425 470.799 571.989 472.681 581.737C459.992 592.926 447.07 605.293 434.038 615.852C430.891 618.448 425.943 622.306 423.223 625.086C419.418 627.718 415.587 630.315 411.732 632.868L411.382 625.128C411.456 614.07 411.443 603.015 411.343 591.958C411.911 584.191 420.318 576.014 420.48 566.994C420.626 558.919 416.882 553.356 411.903 547.636L411.325 547.426C411.486 549.836 411.612 551.829 411.599 554.241C403.619 549.555 401.257 549.034 391.929 549.585C389.797 551.788 387.68 554.005 385.58 556.237C383.126 559.141 377.4 566.436 374.312 568.099L372.587 566.579C369.698 569.943 364.585 576.792 362.058 579.368L361.98 310.049L361.94 218.693C361.939 204.604 361.501 188.046 361.975 174.144Z" fill="#FEFEFE"/>
<path d="M411.045 433.543L411.712 433.069L412.429 433.772C412.59 436.442 412.735 439.113 412.865 441.785C416.931 477.633 421.178 513.461 425.607 549.265C428.207 570.962 430.586 594.38 434.038 615.852C430.891 618.448 425.943 622.306 423.224 625.086C419.418 627.718 415.587 630.315 411.732 632.868L411.382 625.128C411.456 614.07 411.443 603.015 411.343 591.958C411.911 584.192 420.318 576.014 420.48 566.994C420.626 558.919 416.882 553.356 411.903 547.636L411.325 547.426L411.045 433.543Z" fill="black"/>
<path d="M383.525 554.553L385.58 556.237C383.126 559.141 377.4 566.436 374.312 568.099L372.587 566.579C376.132 562.511 379.662 558.308 383.525 554.553Z" fill="#FEE3CB"/>
<path d="M383.525 554.553C380.78 559.377 376.167 564.223 374.312 568.099L372.587 566.579C376.132 562.511 379.662 558.308 383.525 554.553Z" fill="#FD7808"/>
<path d="M411.045 433.543C410.3 429.854 410.567 426.166 411.075 422.448C411.457 425.602 412.256 430.764 412.429 433.772L411.712 433.069L411.045 433.543Z" fill="#7F7E7E"/>
<path d="M257.092 174.129L314.541 174.174L314.616 707.122C315.084 712.633 315.045 718.082 315.083 723.612C317.166 722.179 322.069 718.511 324.391 718.878L323.336 720.36C320.525 721.707 317.745 723.122 315 724.603L314.575 724.536C309.669 727.132 304.66 728.565 299.875 731.247C285.333 739.403 271.093 748.251 257.287 757.564C256.943 722.32 257.699 686.702 257.103 651.513L257.092 174.129Z" fill="#FEFEFE"/>
<path d="M314.616 707.122C315.084 712.633 315.045 718.082 315.083 723.611C317.166 722.179 322.069 718.511 324.391 718.878L323.336 720.36C320.525 721.707 317.745 723.122 315 724.603L314.575 724.536C314.558 718.731 314.572 712.927 314.616 707.122Z" fill="#AB5103"/>
<path d="M479.426 174.141L532.715 174.143C532.12 214.525 532.591 255.955 532.594 296.405L532.609 518.049C528.307 523.67 519.873 531.802 514.907 537.426C503.459 550.392 491.931 563.093 479.59 575.237C479.604 566.803 479.772 557.697 479.361 549.332L479.426 174.141Z" fill="#FEFEFE"/>
<path d="M775.433 174.154L831.857 174.195L831.851 485.046C824.766 490.319 816.108 496.763 809.63 502.758C801.952 509.568 782.67 530.095 780.631 539.304C773.792 553.42 777.104 564.371 786.283 576.162L784.648 577.499L784.746 578.501L785.322 578.536C784.072 580.514 779.254 587.793 776.174 585.387L774.827 584.631C773.259 585.043 771.71 585.5 770.173 586C770.087 586.03 770.008 586.06 769.922 586.09L770.026 585.449L775.384 582.543L775.433 174.154Z" fill="#FEFEFE"/>
<path d="M501.449 666.33C512.94 659.993 520.957 654.935 532.893 649.174L533.104 845.001L533.19 890.52C533.204 894.94 533.494 910.383 532.687 914.075C532.66 914.106 532.642 914.155 532.607 914.179C530.234 916.016 486.582 915.024 479.935 915.012C479.453 905.931 477.135 890.685 475.966 881.39C473.183 858.729 470.152 836.104 466.874 813.504L462.329 782.105C461.439 776.061 460.27 766.626 458.552 761.054C457.598 757.362 458.511 753.223 456.231 749.132C464.302 737.088 472.219 721.603 479.486 708.794C486.707 696.064 496.256 679.789 501.449 666.33Z" fill="#FEFEFE"/>
<path d="M501.449 666.33C512.94 659.993 520.957 654.935 532.893 649.174L533.104 845.001L533.19 890.52C533.204 894.94 533.494 910.383 532.687 914.075C532.21 908.73 532.492 898.345 532.484 892.724L532.463 850.622L532.459 718.829L532.516 681.944C532.528 676.17 532.828 666.159 532.121 660.765C526.186 660.116 510.056 672.166 504.32 675.178C500.269 677.309 498.918 681.228 498.165 685.624C497.201 691.27 493.441 696.817 490.923 702.652C482.458 722.277 472.428 744.032 458.946 760.687C458.814 760.809 458.683 760.931 458.552 761.054C457.598 757.362 458.511 753.223 456.231 749.132C464.302 737.088 472.219 721.603 479.486 708.794C486.707 696.064 496.256 679.789 501.449 666.33Z" fill="#464444"/>
<path d="M775.574 740.627C795.418 738.16 816.151 724.089 831.887 712.425C831.918 714.329 832.132 719.025 831.899 720.679L831.851 915L775.408 915.018C775.414 860.051 776.076 803.585 775.341 748.74C775.249 746.414 775.482 743.04 775.574 740.627Z" fill="#FEFEFE"/>
<path d="M775.574 740.627C795.418 738.16 816.151 724.089 831.887 712.425C831.918 714.329 832.132 719.025 831.899 720.679C823.333 723.887 822.219 728.253 816.892 731.663C805.264 739.097 788.891 747.399 775.341 748.74C775.249 746.414 775.482 743.04 775.574 740.627Z" fill="#464444"/>
<path d="M803.605 947.96C809.508 947.997 815.582 947.856 821.503 947.782C828.054 962.821 840.227 985.072 848.077 999.981C857.353 983.755 866.501 964.774 875.41 947.96L893.112 947.911L893.136 1030.85L877.228 1030.83L877.241 998.432L877.131 975.042L853.128 1022.59L843.295 1022.55C835.163 1006.86 827.118 991.134 819.164 975.354L819.115 1030.88L803.623 1030.83L803.605 947.96Z" fill="#939292"/>
<path d="M361.527 854.565C376.169 843.654 399.715 821.672 411.456 807.76C411.775 813.706 412.654 842.031 411.715 846.881C411.569 869.273 412.092 892.767 411.596 915L361.859 914.993C361.937 898.351 361.617 880.545 362.048 864.031C361.866 860.639 362.439 857.841 361.527 854.565Z" fill="#FEFEFE"/>
<path d="M361.527 854.565C376.169 843.654 399.715 821.672 411.456 807.76C411.775 813.706 412.654 842.031 411.715 846.881C411.2 845.08 411.434 830.826 411.458 828.071C409.326 828.444 401.338 832.73 397.24 834.041C391.191 840.849 369.849 859.17 362.048 864.031C361.866 860.639 362.439 857.841 361.527 854.565Z" fill="#464444"/>
<path d="M397.24 834.041C399.797 831.138 407.547 822.144 410.858 821.158C411.856 822.848 411.492 825.958 411.458 828.071C409.326 828.444 401.338 832.73 397.24 834.041Z" fill="#E9E9E8"/>
<path d="M612.309 947.782C617.054 948.003 622.779 947.88 627.598 947.899C638.583 975.63 651.815 1003.06 662.842 1030.83L645.024 1030.87C638.54 1012.77 629.551 991.366 622.393 973.371L619.932 967.211C611.36 988.531 602.667 1009.8 593.845 1031.03L576.509 1030.79C582.049 1018.73 587.477 1005.34 592.817 993.056C599.275 978.202 606.267 962.716 612.309 947.782Z" fill="#939292"/>
<path d="M370.759 947.942C390.558 947.672 410.92 947.917 430.761 947.935L430.774 961.994C416.342 961.878 401.911 961.914 387.481 962.104C387.287 969.642 387.401 977.62 387.395 985.194C393.381 985.145 422.166 984.594 426.235 985.623L426.34 998.885L387.475 998.873C387.303 1009.45 387.399 1020.32 387.366 1030.91L370.785 1030.84C370.423 1003.45 370.72 975.361 370.759 947.942Z" fill="#939292"/>
<path d="M601.652 1069.46C611.525 1069.47 626.337 1067.48 634.058 1074.38C644.142 1083.4 643.604 1097.97 635.246 1107.98C625.02 1116.07 614.489 1114.17 601.627 1114.03L601.652 1069.46Z" fill="#FEFEFE"/>
<path d="M609.621 1076.34C616.013 1076.18 622.112 1075.5 627.665 1079.29C636.636 1085.42 634.823 1095.61 629.349 1103.38C623.061 1108.49 617.513 1107.35 609.523 1107.23C609.406 1096.93 609.437 1086.63 609.621 1076.34Z" fill="black"/>
<path d="M492.649 1069.41L499.896 1069.34C507.605 1079.81 515.212 1090.85 522.823 1101.46C522.896 1090.77 522.887 1080.08 522.798 1069.39L530.297 1069.47C530.366 1084.01 530.357 1098.56 530.271 1113.1L530.053 1113.53C528.468 1114.45 524.813 1114.09 522.773 1114.05C515.23 1103.21 507.289 1092.33 500.037 1081.33L500.11 1114.11L492.559 1114.03L492.649 1069.41Z" fill="#FD7808"/>
<path d="M799.833 1069.33L807.891 1069.36L826.444 1114.04L818.08 1114.11C816.757 1110.83 815.49 1107.29 814.241 1103.96L809.348 1103.79L793.392 1103.72L789.136 1114.05L780.839 1114.04C787.33 1099.21 793.667 1084.3 799.833 1069.33Z" fill="#19A71B"/>
<path d="M803.378 1078.23C805.332 1079.97 810.359 1093.69 811.216 1096.81C809.575 1097.73 806.195 1097.34 804.144 1097.29L795.994 1097.36L803.378 1078.23Z" fill="black"/>
<path d="M265.874 908.056C273.235 910.162 293.112 899.355 300.448 895.816C305.002 893.624 308.5 890.152 313.993 889.926C315.479 893.814 315.013 909.875 314.535 914.406C311.919 915.741 284.71 914.945 279.503 915.061C275.097 915.055 259.768 916.549 257.489 913.365L258.142 910.089L265.874 908.056Z" fill="#939292"/>
<path d="M279.503 915.061C279.874 913.738 279.739 914.424 279.901 912.991C288.705 910.193 297.299 906.77 305.619 902.753C308.506 901.363 312.324 898.351 314.019 897.714C314.438 899.741 314.349 911.215 314.535 914.406C311.919 915.74 284.71 914.944 279.503 915.061Z" fill="#FEFEFE"/>
<path d="M413.142 1069.34L421.008 1069.41L421.001 1114.05L413.165 1114.02L413.142 1069.34Z" fill="#FD7808"/>
<path d="M709.145 1069.42L716.915 1069.51C716.67 1082.09 717.833 1102.51 716.645 1114.06L709.059 1114C709.255 1099.16 709.047 1084.28 709.145 1069.42Z" fill="#19A71B"/>
<path d="M259.936 1086.09C264.51 1085.41 274.974 1085.67 280.051 1085.66L318.086 1085.67L347.605 1085.69C351.302 1085.69 359.372 1085.48 362.776 1085.99L363.84 1087.77C359.979 1088.72 266.077 1088.92 261.14 1087.97L259.936 1086.09Z" fill="#FD7808"/>
<path d="M873.402 1086.05C878.165 1085.2 972.319 1085.29 975.92 1086.1L976.832 1087.97C971.793 1088.69 879.323 1089 875.171 1088.16C874.118 1087.95 873.916 1086.92 873.402 1086.05Z" fill="#37B21A"/>
<path d="M1122.63 560.27L1127.46 559.405L1126.42 561.692C1123.8 561.782 1113.82 562.356 1111.91 561.599C1115.53 560.43 1118.81 560.482 1122.63 560.27Z" fill="#317929"/>
<path d="M562.753 632.513C566.236 631.821 571.5 627.92 574.199 627.78C573.262 629.672 564.9 633.621 562.709 634.368L562.753 632.513Z" fill="#464444"/>
</svg>